<svg xmlns="http://www.w3.org/2000/svg" version="1.1" xmlns:xlink="http://www.w3.org/1999/xlink" xmlns:svgjs="http://svgjs.dev/svgjs" width="1000" height="239" viewBox="0 0 1000 239"><g transform="matrix(1,0,0,1,-0.6060606060606233,0.24954053040880808)"><svg viewBox="0 0 396 95" data-background-color="#ffffff" preserveAspectRatio="xMidYMid meet" height="239" width="1000" xmlns="http://www.w3.org/2000/svg" xmlns:xlink="http://www.w3.org/1999/xlink"><g id="tight-bounds" transform="matrix(1,0,0,1,0.2400000000000091,-0.09918975058090496)"><svg viewBox="0 0 395.52 95.19837950116182" height="95.19837950116182" width="395.52"><g><svg viewBox="0 0 590.0526094937329 142.0207631579572" height="95.19837950116182" width="395.52"><g transform="matrix(1,0,0,1,0,19.628050479862395)"><svg viewBox="0 0 395.52 102.7646621982324" height="102.7646621982324" width="395.52"><g><svg viewBox="0 0 395.52 102.7646621982324" height="102.7646621982324" width="395.52"><g><svg viewBox="0 0 395.52 102.7646621982324" height="102.7646621982324" width="395.52"><g transform="matrix(1,0,0,1,0,0)"><svg width="395.52" viewBox="2.494186046511628 -35.9 148.74581395348838 38.65" height="102.7646621982324" data-palette-color="#e2a140"><path d="M18.3-13.65Q17.35-13.3 16.75-13.3L16.75-13.3Q15.65-13.3 14.68-14.05 13.7-14.8 13.05-16.1L13.05-16.1 14.45-17Q16.85-18.6 18-19.45L18-19.45Q21.85-22.45 24.7-25.05L24.7-25.05Q25.25-25.5 26-26.9L26-26.9 26.7-28.1 25.8-28.55Q25.65-28.6 25.13-28.83 24.6-29.05 24.25-29.1L24.25-29.1Q19.9-29.55 14.5-29.9L14.5-29.9Q12.8-30.05 12.3-28.05L12.3-28.05 8.1-8.6Q7.75-7.1 7.55-5.98 7.35-4.85 7.2-4.1L7.2-4.1 6.75-1.85Q6.55-1.05 6.1-0.58 5.65-0.1 4.8-0.05L4.8-0.05 4.15 0Q3.2 0 2.83-0.45 2.45-0.9 2.5-2.05L2.5-2.05 2.6-4.05Q2.9-9.95 3.35-12.9L3.35-12.9Q3.65-15.05 4.23-17.65 4.8-20.25 5-21.05L5-21.05Q5.7-23.95 6-25.45L6-25.45 3.4-25.9Q2.8-27.2 2.8-28.15L2.8-28.15Q2.8-29.75 4.3-31.4L4.3-31.4Q5.35-32.6 6.8-33.35 8.25-34.1 9.8-34.35L9.8-34.35Q12.05-34.6 13.8-34.6L13.8-34.6Q20.65-34.6 27.7-31.7L27.7-31.7Q28.55-31.35 29.4-30.63 30.25-29.9 30.5-29.7L30.5-29.7Q32.45-28.05 32.45-26.25L32.45-26.25Q32.45-25.05 31.7-23.6L31.7-23.6Q31.3-22.75 30.35-21.65L30.35-21.65Q25.7-16.55 18.3-13.65L18.3-13.65ZM36.95-7.8Q36.45-7.5 35.5-7.5L35.5-7.5Q35.15-7.5 34.65-7.55 34.15-7.6 33.8-7.55L33.8-7.55Q34.2-5.9 35.7-4.88 37.2-3.85 39.05-3.85L39.05-3.85Q40.65-3.85 41.9-4.55L41.9-4.55Q43.75-5.5 45.1-6.8L45.1-6.8Q46.05-7.75 46.9-7.75L46.9-7.75Q47.45-7.75 47.85-7.2L47.85-7.2Q48.25-6.55 48.25-5.6L48.25-5.6Q48.25-4.6 47.85-4.05L47.85-4.05Q46.55-2.05 44.47-1.3 42.4-0.55 39.65-0.55L39.65-0.55Q36.8-0.55 34.15-1.8 31.5-3.05 29.62-5.23 27.75-7.4 27.15-10.05L27.15-10.05Q26.75-11.6 26.75-13.1L26.75-13.1Q26.75-15.45 28.07-16.9 29.4-18.35 32.35-19.65L32.35-19.65Q35.05-20.8 37.35-20.8L37.35-20.8Q39-20.8 40.55-20.3L40.55-20.3Q45.35-18.8 45.35-16.2L45.35-16.2Q45.35-14.55 43.4-12.2L43.4-12.2Q42.45-11.1 41.15-10.25 39.85-9.4 38.62-8.72 37.4-8.05 36.95-7.8L36.95-7.8ZM39.05-17.05Q39-17.3 38.67-17.48 38.35-17.65 38.3-17.7L38.3-17.7Q36.95-17.8 35.55-16.93 34.15-16.05 33.22-14.7 32.3-13.35 32.3-12.1L32.3-12.1 32.35-11.7Q32.4-11.5 32.87-11.2 33.35-10.9 33.45-11L33.45-11Q37-13.65 38.8-15.25L38.8-15.25Q39.1-15.55 39.1-16.35L39.1-16.35Q39.1-16.85 39.05-17.05L39.05-17.05ZM48.95-18.65Q48.6-19.05 48.47-19.5 48.35-19.95 48.25-20.75L48.25-20.75Q48.7-21.8 49.9-21.8L49.9-21.8Q50.5-21.7 50.75-21.7L50.75-21.7Q51.75-21.7 52-22.3 52.25-22.9 52.25-23.7 52.25-24.5 52.25-24.95L52.25-24.95 52.4-27.95Q52.45-28.95 52.52-30.43 52.6-31.9 52.7-33.85L52.7-33.85Q52.75-34.9 53.22-35.4 53.7-35.9 54.55-35.9L54.55-35.9Q55.15-35.9 55.5-35.8L55.5-35.8Q57.55-35.35 58.25-34.5 58.95-33.65 59.2-31.95L59.2-31.95Q59.25-31.6 59.1-30.5L59.1-30.5 58.2-22.7Q58.15-22.4 58.05-21.98 57.95-21.55 57.95-21.35L57.95-21.35Q57.95-20.9 58.45-20.75 58.95-20.6 60.3-20.65L60.3-20.65Q62.6-21.15 63.8-21.3L63.8-21.3Q64.05-21.35 64.59-21.35L64.59-21.35Q65.2-21.35 65.4-21.2L65.4-21.2Q65.59-21.1 65.72-20.63 65.84-20.15 65.84-19.55L65.84-19.55Q65.84-19 65.72-18.55 65.59-18.1 65.4-18.05L65.4-18.05Q64.05-17.65 62.2-17.4L62.2-17.4Q60-17 58.95-16.7L58.95-16.7Q58.4-16.55 57.85-15.95 57.3-15.35 57.25-14.85L57.25-14.85Q57.15-12.4 57.1-9.85L57.1-9.85Q57.05-7.9 57.25-5.95L57.25-5.95Q57.4-4.3 57.9-3.58 58.4-2.85 59.4-2.85L59.4-2.85Q60.2-2.85 61.7-3.4L61.7-3.4Q62.5-3.75 63.1-3.75L63.1-3.75Q64.05-3.75 64.45-2.7L64.45-2.7Q64.59-2.35 64.59-2L64.59-2Q64.59-1.35 64.12-0.95 63.65-0.55 62.85-0.25L62.85-0.25Q61.35 0.3 59.8 0.35L59.8 0.35Q57.7 0.35 55.85-0.68 54-1.7 52.92-3.55 51.85-5.4 52-7.8L52-7.8Q52.05-8.75 52.05-10.8L52.05-10.8Q52.05-14.05 51.8-17.4L51.8-17.4Q51.75-17.7 51.45-17.82 51.15-17.95 50.45-18.1L50.45-18.1Q49.3-18.3 48.95-18.65L48.95-18.65ZM90.79-23.25Q90.54-22.75 89.19-20.5L89.19-20.5Q90.44-19.75 90.94-19.55L90.94-19.55Q93.59-18.55 94.92-16.53 96.24-14.5 96.24-12.05L96.24-12.05Q96.24-9.65 94.99-7.3L94.99-7.3Q91.89-1.55 84.99 1.9L84.99 1.9Q83.29 2.75 81.64 2.75L81.64 2.75Q79.24 2.75 77.19 1.05L77.19 1.05Q76.39 0.4 75.29-0.4L75.29-0.4Q75.19-0.1 75.07 0.33 74.94 0.75 74.79 0.95L74.79 0.95Q74.19 1.85 73.29 1.85L73.29 1.85Q72.49 1.85 71.84 1.2L71.84 1.2Q70.04-0.45 70.04-2.55L70.04-2.55Q70.04-4.15 69.99-5.35 69.94-6.55 69.89-7.35L69.89-7.35Q69.84-8.35 69.79-9.85 69.74-11.35 69.74-13.35L69.74-13.35Q69.74-17.15 70.14-20.15L70.14-20.15Q70.69-24.55 72.24-28.4L72.24-28.4Q73.44-31.3 75.82-32.95 78.19-34.6 81.44-34.9L81.44-34.9Q82.94-35 83.74-35L83.74-35Q87.44-35 89.94-33.4L89.94-33.4Q91.24-32.6 91.97-31.3 92.69-30 92.69-28.5L92.69-28.5Q92.69-27.25 92.14-26L92.14-26 91.64-25Q91.29-24.2 90.79-23.25L90.79-23.25ZM86.84-27.4Q87.09-28.05 87.29-29.55L87.29-29.55 87.44-30.65Q85.94-31.3 84.59-31.3L84.59-31.3Q83.44-31.3 82.44-30.95L82.44-30.95Q80.29-30.25 78.87-28.83 77.44-27.4 76.62-25.7 75.79-24 74.99-21.5L74.99-21.5Q74.39-19.55 74.39-17.15L74.39-17.15Q74.39-15.85 74.59-13.35L74.59-13.35Q74.69-12.6 74.79-10.9L74.79-10.9Q74.84-9.55 75.34-5.35L75.34-5.35 75.54-3.7Q75.84-3.6 76.54-3.5L76.54-3.5Q77.49-3.4 77.99-3.1L77.99-3.1Q78.44-2.85 78.89-2.27 79.34-1.7 79.59-1.4L79.59-1.4Q82.59-2 84.72-3.85 86.84-5.7 88.89-8.65L88.89-8.65Q90.44-11.05 90.84-12.95L90.84-12.95Q90.99-13.7 90.99-14.3L90.99-14.3Q90.99-15.65 90.27-16.35 89.54-17.05 88.29-17.05L88.29-17.05Q87.54-17.05 86.89-16.85L86.89-16.85Q84.64-16.2 82.29-14L82.29-14Q81.09-12.95 79.89-12.95L79.89-12.95Q79.14-12.95 78.34-13.4L78.34-13.4Q77.39-13.95 76.74-14.6 76.09-15.25 75.64-16.3L75.64-16.3 76.79-17.1Q78.59-18.4 79.54-18.95L79.54-18.95Q84.39-21.55 86.84-27.4L86.84-27.4ZM107.84-21.2Q107.99-20.7 107.89-19.65L107.89-19.65 107.29-13.75Q107.54-13.95 108.04-15.18 108.54-16.4 108.99-17.18 109.44-17.95 109.69-18.2L109.69-18.2Q112.04-20.45 114.99-20.9 117.94-21.35 121.49-21.3L121.49-21.3Q121.84-21.3 122.27-21.03 122.69-20.75 122.69-20.58 122.69-20.4 122.39-20.03 122.09-19.65 121.84-19.55L121.84-19.55Q118.84-18.55 116.57-17.25 114.29-15.95 112.64-13.85L112.64-13.85Q108.74-8.9 108.14-3.65L108.14-3.65Q107.99-2.25 107.29-1.78 106.59-1.3 105.34-1.3L105.34-1.3Q103.94-1.3 102.84-2.5 101.74-3.7 101.74-5.15L101.74-5.15Q101.79-10.45 101.79-21.05L101.79-21.05Q101.79-22.5 102.44-23.08 103.09-23.65 104.79-23.65L104.79-23.65Q106.04-23.65 106.92-22.95 107.79-22.25 107.84-21.2L107.84-21.2ZM145.79-23.25Q145.54-22.75 144.19-20.5L144.19-20.5Q145.44-19.75 145.94-19.55L145.94-19.55Q148.59-18.55 149.91-16.53 151.24-14.5 151.24-12.05L151.24-12.05Q151.24-9.65 149.99-7.3L149.99-7.3Q146.89-1.55 139.99 1.9L139.99 1.9Q138.29 2.75 136.64 2.75L136.64 2.75Q134.24 2.75 132.19 1.05L132.19 1.05Q131.39 0.4 130.29-0.4L130.29-0.4Q130.19-0.1 130.06 0.33 129.94 0.75 129.79 0.95L129.79 0.95Q129.19 1.85 128.29 1.85L128.29 1.85Q127.49 1.85 126.84 1.2L126.84 1.2Q125.04-0.45 125.04-2.55L125.04-2.55Q125.04-4.15 124.99-5.35 124.94-6.55 124.89-7.35L124.89-7.35Q124.84-8.35 124.79-9.85 124.74-11.35 124.74-13.35L124.74-13.35Q124.74-17.15 125.14-20.15L125.14-20.15Q125.69-24.55 127.24-28.4L127.24-28.4Q128.44-31.3 130.81-32.95 133.19-34.6 136.44-34.9L136.44-34.9Q137.94-35 138.74-35L138.74-35Q142.44-35 144.94-33.4L144.94-33.4Q146.24-32.6 146.96-31.3 147.69-30 147.69-28.5L147.69-28.5Q147.69-27.25 147.14-26L147.14-26 146.64-25Q146.29-24.2 145.79-23.25L145.79-23.25ZM141.84-27.4Q142.09-28.05 142.29-29.55L142.29-29.55 142.44-30.65Q140.94-31.3 139.59-31.3L139.59-31.3Q138.44-31.3 137.44-30.95L137.44-30.95Q135.29-30.25 133.86-28.83 132.44-27.4 131.61-25.7 130.79-24 129.99-21.5L129.99-21.5Q129.39-19.55 129.39-17.15L129.39-17.15Q129.39-15.85 129.59-13.35L129.59-13.35Q129.69-12.6 129.79-10.9L129.79-10.9Q129.84-9.55 130.34-5.35L130.34-5.35 130.54-3.7Q130.84-3.6 131.54-3.5L131.54-3.5Q132.49-3.4 132.99-3.1L132.99-3.1Q133.44-2.85 133.89-2.27 134.34-1.7 134.59-1.4L134.59-1.4Q137.59-2 139.71-3.85 141.84-5.7 143.89-8.65L143.89-8.65Q145.44-11.05 145.84-12.95L145.84-12.95Q145.99-13.7 145.99-14.3L145.99-14.3Q145.99-15.65 145.26-16.35 144.54-17.05 143.29-17.05L143.29-17.05Q142.54-17.05 141.89-16.85L141.89-16.85Q139.64-16.2 137.29-14L137.29-14Q136.09-12.95 134.89-12.95L134.89-12.95Q134.14-12.95 133.34-13.4L133.34-13.4Q132.39-13.95 131.74-14.6 131.09-15.25 130.64-16.3L130.64-16.3 131.79-17.1Q133.59-18.4 134.54-18.95L134.54-18.95Q139.39-21.55 141.84-27.4L141.84-27.4Z" opacity="1" transform="matrix(1,0,0,1,0,0)" fill="#e2a140" class="undefined-text-0" data-fill-palette-color="primary" id="text-0"></path></svg></g></svg></g></svg></g></svg></g><g transform="matrix(1,0,0,1,419.7802703931099,0)"><svg viewBox="0 0 170.27233910062301 142.0207631579572" height="142.0207631579572" width="170.27233910062301"><g><svg xmlns="http://www.w3.org/2000/svg" xmlns:xlink="http://www.w3.org/1999/xlink" version="1.1" x="0" y="0" viewBox="4.562999999999992 13.694774208543011 93.375 77.88222579145699" enable-background="new 0 0 100 100" xml:space="preserve" height="142.0207631579572" width="170.27233910062301" class="icon-icon-0" data-fill-palette-color="accent" id="icon-0"><path fill-rule="evenodd" clip-rule="evenodd" d="M95.934 26.48l-3.713 8.296c-1.01 1.928-2.794 3.025-5.35 3.293h-1.395c-1.708-0.105-3.567-0.14-5.577-0.105-2.429 0.395-4.59 0.912-6.483 1.551-1.511 0.5-3.027 0.576-4.55 0.227-0.615-0.174-1.487-0.512-2.614-1.011-0.418-0.209-1.487-0.931-3.207-2.162-1.789-1.29-3.485-2.329-5.089-3.119-1.405-0.768-4.101-2.046-8.087-3.835-2.277-1.104-3.753-2.097-4.426-2.979-0.663-0.895-0.75-1.976-0.262-3.242 0.267-0.72 0.808-1.255 1.621-1.604 1.138-0.581 2.498-0.535 4.079 0.14 1.904 0.86 3.224 1.453 3.956 1.778 1.29 0.581 3.317 1.325 6.082 2.23 0.942 0.291 1.883 0.489 2.823 0.593h1.203l-1.08-0.488c-6.356-2.916-10.533-4.799-12.531-5.647-1.952-0.813-3.643-0.941-5.072-0.382-1.383 0.581-2.335 1.417-2.858 2.509-0.279 0.616-0.471 1.447-0.575 2.492-0.744-0.046-2.26-0.111-4.549-0.192-4.799 2.313-7.401 3.544-7.808 3.695-0.941 0.314-1.906 0.488-2.893 0.523-1.081-0.024-1.876-0.216-2.388-0.576-0.604-0.255-1.034-0.895-1.29-1.917-0.175-1.047 0.737-2.179 2.736-3.399l10.596-6.867c5.101-0.603 10.08-1.423 14.937-2.457 1.068-0.244 2.103-0.145 3.102 0.296 3.115 1.604 6.659 3.23 10.632 4.88 1.977 0.813 3.887 1.575 5.734 2.284 3.277 1.057 6.024 1.667 8.244 1.83h0.018c2.439 0.023 7.784-0.941 16.034-2.894C98.606 19.631 98.606 21.717 95.934 26.48z" fill="#e2a140" data-fill-palette-color="accent"></path><path fill-rule="evenodd" clip-rule="evenodd" d="M25.73 31.831c3.405 5.019 6.298 10.091 8.68 15.215 3.764 8.168 5.49 15.047 5.176 20.636-0.058 0.302-0.209 0.604-0.453 0.906-0.348 0.384-0.604 0.61-0.767 0.68-4.276 1.371-8.511 1.731-12.706 1.081-6.309-1.139-11.741-4.619-16.295-10.439 0.825-7.576 2.347-13.485 4.566-17.726l2.962-4.113C19.567 35.154 22.512 33.075 25.73 31.831z" fill="#e2a140" data-fill-palette-color="accent"></path><path fill-rule="evenodd" clip-rule="evenodd" d="M79.011 48.388c-0.709-0.917-1.587-1.476-2.632-1.672-9.572 0.235-14.992-1.101-16.261-4.009-2.406-5.798-6.397-9.499-11.974-11.102-5.577-1.592-11.648-0.93-18.213 1.986 2.893 4.613 5.287 9.132 7.18 13.56 3.509 7.878 5.072 14.617 4.688 20.218 0 1.022-0.389 1.992-1.167 2.91-0.686 0.93-1.511 1.546-2.475 1.849-3.01 1.01-7.129 1.301-12.357 0.871-5.24-0.442-10.904-3.167-16.993-8.175-1.385 6.83-2.799 11.271-4.244 13.324 14.306 8.29 28.217 12.767 41.733 13.429 2.091-7.355 3.184-11.137 3.277-11.346 0.523-1.36 0.837-2.133 0.941-2.318 0.244-0.406 0.546-0.784 0.906-1.133 0.789-0.778 1.69-1.243 2.702-1.395 5.959-0.813 11.095-2.66 15.406-5.542 6.519-4.321 9.997-10.521 10.439-18.597C80.063 50.224 79.742 49.271 79.011 48.388zM53.181 50.445c-0.686 0.674-1.51 1.01-2.475 1.01-0.988 0-1.818-0.336-2.493-1.01-0.685-0.674-1.028-1.505-1.028-2.492 0-0.977 0.343-1.802 1.028-2.475 0.674-0.674 1.504-1.012 2.493-1.012 0.965 0 1.789 0.337 2.475 1.012 0.675 0.673 1.012 1.498 1.012 2.475C54.192 48.939 53.855 49.771 53.181 50.445z" fill="#e2a140" data-fill-palette-color="accent"></path></svg></g></svg></g></svg></g><defs></defs></svg><rect width="395.52" height="95.19837950116182" fill="none" stroke="none" visibility="hidden"></rect></g></svg></g></svg>